<?xml version="1.0" encoding="utf-8"?>
<svg xmlns="http://www.w3.org/2000/svg" xmlns:xlink="http://www.w3.org/1999/xlink" style="margin: auto; background: rgb(241, 242, 243); display: block; z-index: 1; position: relative; shape-rendering: auto;" width="1920" height="937" preserveAspectRatio="xMidYMid" viewBox="0 0 1920 937">
<g transform=""><g transform="translate(1683.23 617.532)">
  <animateTransform attributeName="transform" type="translate" keyTimes="0;1" values="-100 617.5316560195075;1920 617.5316560195075" dur="33.333333333333336s" repeatCount="indefinite" begin="-54.02655890077561s"></animateTransform>
  <path d="M84.717,33.597c0.791-2.503,1.186-5.138,1.186-7.773C85.903,11.594,74.308,0,60.079,0 c-9.881,0-18.445,5.534-22.793,13.702c-1.581-0.527-3.426-0.791-5.138-0.791c-9.486,0-17.128,7.642-17.128,17.128 c0,1.186,0.132,2.372,0.395,3.426C6.719,34.783,0,42.424,0,51.515C0,61.66,8.169,69.829,18.314,69.829h63.373 C91.831,69.829,100,61.66,100,51.515C99.868,42.556,93.281,35.046,84.717,33.597z" fill="#94a9ce" transform="scale(1.0680775030530036)"></path>
</g><g transform="translate(1062.41 60.6965)">
  <animateTransform attributeName="transform" type="translate" keyTimes="0;1" values="-100 60.6964792158219;1920 60.6964792158219" dur="33.333333333333336s" repeatCount="indefinite" begin="-43.78208202278995s"></animateTransform>
  <path d="M84.717,33.597c0.791-2.503,1.186-5.138,1.186-7.773C85.903,11.594,74.308,0,60.079,0 c-9.881,0-18.445,5.534-22.793,13.702c-1.581-0.527-3.426-0.791-5.138-0.791c-9.486,0-17.128,7.642-17.128,17.128 c0,1.186,0.132,2.372,0.395,3.426C6.719,34.783,0,42.424,0,51.515C0,61.66,8.169,69.829,18.314,69.829h63.373 C91.831,69.829,100,61.66,100,51.515C99.868,42.556,93.281,35.046,84.717,33.597z" fill="#667395" transform="scale(1.1018712787183913)"></path>
</g><g transform="translate(1686.27 538.122)">
  <animateTransform attributeName="transform" type="translate" keyTimes="0;1" values="-100 538.122135934478;1920 538.122135934478" dur="100s" repeatCount="indefinite" begin="-79.69601785783456s"></animateTransform>
  <path d="M84.717,33.597c0.791-2.503,1.186-5.138,1.186-7.773C85.903,11.594,74.308,0,60.079,0 c-9.881,0-18.445,5.534-22.793,13.702c-1.581-0.527-3.426-0.791-5.138-0.791c-9.486,0-17.128,7.642-17.128,17.128 c0,1.186,0.132,2.372,0.395,3.426C6.719,34.783,0,42.424,0,51.515C0,61.66,8.169,69.829,18.314,69.829h63.373 C91.831,69.829,100,61.66,100,51.515C99.868,42.556,93.281,35.046,84.717,33.597z" fill="#b5ccf1" transform="scale(0.8811073957425457)"></path>
</g><g transform="translate(1910.2 14.1658)">
  <animateTransform attributeName="transform" type="translate" keyTimes="0;1" values="-100 14.1658343729924;1920 14.1658343729924" dur="33.333333333333336s" repeatCount="indefinite" begin="-91.10522413375803s"></animateTransform>
  <path d="M84.717,33.597c0.791-2.503,1.186-5.138,1.186-7.773C85.903,11.594,74.308,0,60.079,0 c-9.881,0-18.445,5.534-22.793,13.702c-1.581-0.527-3.426-0.791-5.138-0.791c-9.486,0-17.128,7.642-17.128,17.128 c0,1.186,0.132,2.372,0.395,3.426C6.719,34.783,0,42.424,0,51.515C0,61.66,8.169,69.829,18.314,69.829h63.373 C91.831,69.829,100,61.66,100,51.515C99.868,42.556,93.281,35.046,84.717,33.597z" fill="#94a9ce" transform="scale(0.9214319983688329)"></path>
</g><g transform="translate(458.987 141.684)">
  <animateTransform attributeName="transform" type="translate" keyTimes="0;1" values="-100 141.68390499879885;1920 141.68390499879885" dur="100s" repeatCount="indefinite" begin="-18.939649576059832s"></animateTransform>
  <path d="M84.717,33.597c0.791-2.503,1.186-5.138,1.186-7.773C85.903,11.594,74.308,0,60.079,0 c-9.881,0-18.445,5.534-22.793,13.702c-1.581-0.527-3.426-0.791-5.138-0.791c-9.486,0-17.128,7.642-17.128,17.128 c0,1.186,0.132,2.372,0.395,3.426C6.719,34.783,0,42.424,0,51.515C0,61.66,8.169,69.829,18.314,69.829h63.373 C91.831,69.829,100,61.66,100,51.515C99.868,42.556,93.281,35.046,84.717,33.597z" fill="#94a9ce" transform="scale(0.9808705082282683)"></path>
</g><g transform="translate(456.459 528.798)">
  <animateTransform attributeName="transform" type="translate" keyTimes="0;1" values="-100 528.7977729860288;1920 528.7977729860288" dur="100s" repeatCount="indefinite" begin="-18.814476581790405s"></animateTransform>
  <path d="M84.717,33.597c0.791-2.503,1.186-5.138,1.186-7.773C85.903,11.594,74.308,0,60.079,0 c-9.881,0-18.445,5.534-22.793,13.702c-1.581-0.527-3.426-0.791-5.138-0.791c-9.486,0-17.128,7.642-17.128,17.128 c0,1.186,0.132,2.372,0.395,3.426C6.719,34.783,0,42.424,0,51.515C0,61.66,8.169,69.829,18.314,69.829h63.373 C91.831,69.829,100,61.66,100,51.515C99.868,42.556,93.281,35.046,84.717,33.597z" fill="#b5ccf1" transform="scale(0.8063935748538497)"></path>
</g><g transform="translate(933.4 901.681)">
  <animateTransform attributeName="transform" type="translate" keyTimes="0;1" values="-100 901.680677914416;1920 901.680677914416" dur="50s" repeatCount="indefinite" begin="-66.84622598095676s"></animateTransform>
  <path d="M84.717,33.597c0.791-2.503,1.186-5.138,1.186-7.773C85.903,11.594,74.308,0,60.079,0 c-9.881,0-18.445,5.534-22.793,13.702c-1.581-0.527-3.426-0.791-5.138-0.791c-9.486,0-17.128,7.642-17.128,17.128 c0,1.186,0.132,2.372,0.395,3.426C6.719,34.783,0,42.424,0,51.515C0,61.66,8.169,69.829,18.314,69.829h63.373 C91.831,69.829,100,61.66,100,51.515C99.868,42.556,93.281,35.046,84.717,33.597z" fill="#667395" transform="scale(0.5633994322185619)"></path>
</g><g transform="translate(292.656 884.217)">
  <animateTransform attributeName="transform" type="translate" keyTimes="0;1" values="-100 884.2167071098556;1920 884.2167071098556" dur="33.333333333333336s" repeatCount="indefinite" begin="-31.079826883888938s"></animateTransform>
  <path d="M84.717,33.597c0.791-2.503,1.186-5.138,1.186-7.773C85.903,11.594,74.308,0,60.079,0 c-9.881,0-18.445,5.534-22.793,13.702c-1.581-0.527-3.426-0.791-5.138-0.791c-9.486,0-17.128,7.642-17.128,17.128 c0,1.186,0.132,2.372,0.395,3.426C6.719,34.783,0,42.424,0,51.515C0,61.66,8.169,69.829,18.314,69.829h63.373 C91.831,69.829,100,61.66,100,51.515C99.868,42.556,93.281,35.046,84.717,33.597z" fill="#667395" transform="scale(0.5350018029356821)"></path>
</g><g transform="translate(1232.96 665.406)">
  <animateTransform attributeName="transform" type="translate" keyTimes="0;1" values="-100 665.4055344805155;1920 665.4055344805155" dur="33.333333333333336s" repeatCount="indefinite" begin="-46.59635289701256s"></animateTransform>
  <path d="M84.717,33.597c0.791-2.503,1.186-5.138,1.186-7.773C85.903,11.594,74.308,0,60.079,0 c-9.881,0-18.445,5.534-22.793,13.702c-1.581-0.527-3.426-0.791-5.138-0.791c-9.486,0-17.128,7.642-17.128,17.128 c0,1.186,0.132,2.372,0.395,3.426C6.719,34.783,0,42.424,0,51.515C0,61.66,8.169,69.829,18.314,69.829h63.373 C91.831,69.829,100,61.66,100,51.515C99.868,42.556,93.281,35.046,84.717,33.597z" fill="#b5ccf1" transform="scale(0.8886043297280914)"></path>
</g><g transform="translate(854.995 706.836)">
  <animateTransform attributeName="transform" type="translate" keyTimes="0;1" values="-100 706.8362195142382;1920 706.8362195142382" dur="50s" repeatCount="indefinite" begin="-14.905512141612334s"></animateTransform>
  <path d="M84.717,33.597c0.791-2.503,1.186-5.138,1.186-7.773C85.903,11.594,74.308,0,60.079,0 c-9.881,0-18.445,5.534-22.793,13.702c-1.581-0.527-3.426-0.791-5.138-0.791c-9.486,0-17.128,7.642-17.128,17.128 c0,1.186,0.132,2.372,0.395,3.426C6.719,34.783,0,42.424,0,51.515C0,61.66,8.169,69.829,18.314,69.829h63.373 C91.831,69.829,100,61.66,100,51.515C99.868,42.556,93.281,35.046,84.717,33.597z" fill="#667395" transform="scale(0.6384950256143991)"></path>
</g><g transform="translate(1193.83 91.5864)">
  <animateTransform attributeName="transform" type="translate" keyTimes="0;1" values="-100 91.58639476221778;1920 91.58639476221778" dur="50s" repeatCount="indefinite" begin="-23.292412954215436s"></animateTransform>
  <path d="M84.717,33.597c0.791-2.503,1.186-5.138,1.186-7.773C85.903,11.594,74.308,0,60.079,0 c-9.881,0-18.445,5.534-22.793,13.702c-1.581-0.527-3.426-0.791-5.138-0.791c-9.486,0-17.128,7.642-17.128,17.128 c0,1.186,0.132,2.372,0.395,3.426C6.719,34.783,0,42.424,0,51.515C0,61.66,8.169,69.829,18.314,69.829h63.373 C91.831,69.829,100,61.66,100,51.515C99.868,42.556,93.281,35.046,84.717,33.597z" fill="#b5ccf1" transform="scale(0.7578078724951798)"></path>
</g><g transform="translate(1510.56 216.417)">
  <animateTransform attributeName="transform" type="translate" keyTimes="0;1" values="-100 216.41650455285185;1920 216.41650455285185" dur="33.333333333333336s" repeatCount="indefinite" begin="-17.843856203720623s"></animateTransform>
  <path d="M84.717,33.597c0.791-2.503,1.186-5.138,1.186-7.773C85.903,11.594,74.308,0,60.079,0 c-9.881,0-18.445,5.534-22.793,13.702c-1.581-0.527-3.426-0.791-5.138-0.791c-9.486,0-17.128,7.642-17.128,17.128 c0,1.186,0.132,2.372,0.395,3.426C6.719,34.783,0,42.424,0,51.515C0,61.66,8.169,69.829,18.314,69.829h63.373 C91.831,69.829,100,61.66,100,51.515C99.868,42.556,93.281,35.046,84.717,33.597z" fill="#667395" transform="scale(0.937317605727121)"></path>
</g><g transform="translate(670.883 698.883)">
  <animateTransform attributeName="transform" type="translate" keyTimes="0;1" values="-100 698.8833895499944;1920 698.8833895499944" dur="100s" repeatCount="indefinite" begin="-29.429563736891634s"></animateTransform>
  <path d="M84.717,33.597c0.791-2.503,1.186-5.138,1.186-7.773C85.903,11.594,74.308,0,60.079,0 c-9.881,0-18.445,5.534-22.793,13.702c-1.581-0.527-3.426-0.791-5.138-0.791c-9.486,0-17.128,7.642-17.128,17.128 c0,1.186,0.132,2.372,0.395,3.426C6.719,34.783,0,42.424,0,51.515C0,61.66,8.169,69.829,18.314,69.829h63.373 C91.831,69.829,100,61.66,100,51.515C99.868,42.556,93.281,35.046,84.717,33.597z" fill="#b5ccf1" transform="scale(0.5263972271344237)"></path>
</g><g transform="translate(1711.31 63.2535)">
  <animateTransform attributeName="transform" type="translate" keyTimes="0;1" values="-100 63.25351494239365;1920 63.25351494239365" dur="50s" repeatCount="indefinite" begin="-86.10147875097577s"></animateTransform>
  <path d="M84.717,33.597c0.791-2.503,1.186-5.138,1.186-7.773C85.903,11.594,74.308,0,60.079,0 c-9.881,0-18.445,5.534-22.793,13.702c-1.581-0.527-3.426-0.791-5.138-0.791c-9.486,0-17.128,7.642-17.128,17.128 c0,1.186,0.132,2.372,0.395,3.426C6.719,34.783,0,42.424,0,51.515C0,61.66,8.169,69.829,18.314,69.829h63.373 C91.831,69.829,100,61.66,100,51.515C99.868,42.556,93.281,35.046,84.717,33.597z" fill="#b5ccf1" transform="scale(1.0465340662525098)"></path>
</g><g transform="translate(1233.48 260.243)">
  <animateTransform attributeName="transform" type="translate" keyTimes="0;1" values="-100 260.2431172266259;1920 260.2431172266259" dur="50s" repeatCount="indefinite" begin="-24.2740167696818s"></animateTransform>
  <path d="M84.717,33.597c0.791-2.503,1.186-5.138,1.186-7.773C85.903,11.594,74.308,0,60.079,0 c-9.881,0-18.445,5.534-22.793,13.702c-1.581-0.527-3.426-0.791-5.138-0.791c-9.486,0-17.128,7.642-17.128,17.128 c0,1.186,0.132,2.372,0.395,3.426C6.719,34.783,0,42.424,0,51.515C0,61.66,8.169,69.829,18.314,69.829h63.373 C91.831,69.829,100,61.66,100,51.515C99.868,42.556,93.281,35.046,84.717,33.597z" fill="#94a9ce" transform="scale(1.0107442498503847)"></path>
</g><g transform="translate(90.481 251.307)">
  <animateTransform attributeName="transform" type="translate" keyTimes="0;1" values="-100 251.3074995372985;1920 251.3074995372985" dur="100s" repeatCount="indefinite" begin="-0.6967672546700848s"></animateTransform>
  <path d="M84.717,33.597c0.791-2.503,1.186-5.138,1.186-7.773C85.903,11.594,74.308,0,60.079,0 c-9.881,0-18.445,5.534-22.793,13.702c-1.581-0.527-3.426-0.791-5.138-0.791c-9.486,0-17.128,7.642-17.128,17.128 c0,1.186,0.132,2.372,0.395,3.426C6.719,34.783,0,42.424,0,51.515C0,61.66,8.169,69.829,18.314,69.829h63.373 C91.831,69.829,100,61.66,100,51.515C99.868,42.556,93.281,35.046,84.717,33.597z" fill="#b5ccf1" transform="scale(0.8711814534758985)"></path>
</g><g transform="translate(909.326 146.321)">
  <animateTransform attributeName="transform" type="translate" keyTimes="0;1" values="-100 146.3205853605044;1920 146.3205853605044" dur="100s" repeatCount="indefinite" begin="-41.233631464175794s"></animateTransform>
  <path d="M84.717,33.597c0.791-2.503,1.186-5.138,1.186-7.773C85.903,11.594,74.308,0,60.079,0 c-9.881,0-18.445,5.534-22.793,13.702c-1.581-0.527-3.426-0.791-5.138-0.791c-9.486,0-17.128,7.642-17.128,17.128 c0,1.186,0.132,2.372,0.395,3.426C6.719,34.783,0,42.424,0,51.515C0,61.66,8.169,69.829,18.314,69.829h63.373 C91.831,69.829,100,61.66,100,51.515C99.868,42.556,93.281,35.046,84.717,33.597z" fill="#b5ccf1" transform="scale(0.6495681957145112)"></path>
</g><g transform="translate(1062.17 926.147)">
  <animateTransform attributeName="transform" type="translate" keyTimes="0;1" values="-100 926.1471466891214;1920 926.1471466891214" dur="100s" repeatCount="indefinite" begin="-48.800357457960864s"></animateTransform>
  <path d="M84.717,33.597c0.791-2.503,1.186-5.138,1.186-7.773C85.903,11.594,74.308,0,60.079,0 c-9.881,0-18.445,5.534-22.793,13.702c-1.581-0.527-3.426-0.791-5.138-0.791c-9.486,0-17.128,7.642-17.128,17.128 c0,1.186,0.132,2.372,0.395,3.426C6.719,34.783,0,42.424,0,51.515C0,61.66,8.169,69.829,18.314,69.829h63.373 C91.831,69.829,100,61.66,100,51.515C99.868,42.556,93.281,35.046,84.717,33.597z" fill="#94a9ce" transform="scale(0.9060328463904244)"></path>
</g><g transform="translate(516.296 663.662)">
  <animateTransform attributeName="transform" type="translate" keyTimes="0;1" values="-100 663.6620028606197;1920 663.6620028606197" dur="33.333333333333336s" repeatCount="indefinite" begin="-34.770251993848476s"></animateTransform>
  <path d="M84.717,33.597c0.791-2.503,1.186-5.138,1.186-7.773C85.903,11.594,74.308,0,60.079,0 c-9.881,0-18.445,5.534-22.793,13.702c-1.581-0.527-3.426-0.791-5.138-0.791c-9.486,0-17.128,7.642-17.128,17.128 c0,1.186,0.132,2.372,0.395,3.426C6.719,34.783,0,42.424,0,51.515C0,61.66,8.169,69.829,18.314,69.829h63.373 C91.831,69.829,100,61.66,100,51.515C99.868,42.556,93.281,35.046,84.717,33.597z" fill="#94a9ce" transform="scale(0.6080425072502994)"></path>
</g><g transform="translate(1134.49 893.647)">
  <animateTransform attributeName="transform" type="translate" keyTimes="0;1" values="-100 893.6466204813653;1920 893.6466204813653" dur="100s" repeatCount="indefinite" begin="-52.380381761539475s"></animateTransform>
  <path d="M84.717,33.597c0.791-2.503,1.186-5.138,1.186-7.773C85.903,11.594,74.308,0,60.079,0 c-9.881,0-18.445,5.534-22.793,13.702c-1.581-0.527-3.426-0.791-5.138-0.791c-9.486,0-17.128,7.642-17.128,17.128 c0,1.186,0.132,2.372,0.395,3.426C6.719,34.783,0,42.424,0,51.515C0,61.66,8.169,69.829,18.314,69.829h63.373 C91.831,69.829,100,61.66,100,51.515C99.868,42.556,93.281,35.046,84.717,33.597z" fill="#94a9ce" transform="scale(0.920267760379238)"></path>
</g><g transform="translate(1494.08 357.832)">
  <animateTransform attributeName="transform" type="translate" keyTimes="0;1" values="-100 357.83156191267346;1920 357.83156191267346" dur="33.333333333333336s" repeatCount="indefinite" begin="-17.572016681088833s"></animateTransform>
  <path d="M84.717,33.597c0.791-2.503,1.186-5.138,1.186-7.773C85.903,11.594,74.308,0,60.079,0 c-9.881,0-18.445,5.534-22.793,13.702c-1.581-0.527-3.426-0.791-5.138-0.791c-9.486,0-17.128,7.642-17.128,17.128 c0,1.186,0.132,2.372,0.395,3.426C6.719,34.783,0,42.424,0,51.515C0,61.66,8.169,69.829,18.314,69.829h63.373 C91.831,69.829,100,61.66,100,51.515C99.868,42.556,93.281,35.046,84.717,33.597z" fill="#b5ccf1" transform="scale(1.0820283135234383)"></path>
</g><g transform="translate(1027.08 660.265)">
  <animateTransform attributeName="transform" type="translate" keyTimes="0;1" values="-100 660.2649875998909;1920 660.2649875998909" dur="50s" repeatCount="indefinite" begin="-19.16502118928326s"></animateTransform>
  <path d="M84.717,33.597c0.791-2.503,1.186-5.138,1.186-7.773C85.903,11.594,74.308,0,60.079,0 c-9.881,0-18.445,5.534-22.793,13.702c-1.581-0.527-3.426-0.791-5.138-0.791c-9.486,0-17.128,7.642-17.128,17.128 c0,1.186,0.132,2.372,0.395,3.426C6.719,34.783,0,42.424,0,51.515C0,61.66,8.169,69.829,18.314,69.829h63.373 C91.831,69.829,100,61.66,100,51.515C99.868,42.556,93.281,35.046,84.717,33.597z" fill="#667395" transform="scale(1.006145708143324)"></path>
</g><g transform="translate(615.375 628.792)">
  <animateTransform attributeName="transform" type="translate" keyTimes="0;1" values="-100 628.792124171842;1920 628.792124171842" dur="50s" repeatCount="indefinite" begin="-58.974307862512866s"></animateTransform>
  <path d="M84.717,33.597c0.791-2.503,1.186-5.138,1.186-7.773C85.903,11.594,74.308,0,60.079,0 c-9.881,0-18.445,5.534-22.793,13.702c-1.581-0.527-3.426-0.791-5.138-0.791c-9.486,0-17.128,7.642-17.128,17.128 c0,1.186,0.132,2.372,0.395,3.426C6.719,34.783,0,42.424,0,51.515C0,61.66,8.169,69.829,18.314,69.829h63.373 C91.831,69.829,100,61.66,100,51.515C99.868,42.556,93.281,35.046,84.717,33.597z" fill="#667395" transform="scale(0.6683636844102493)"></path>
</g><g transform="translate(346.013 312.864)">
  <animateTransform attributeName="transform" type="translate" keyTimes="0;1" values="-100 312.8637895316478;1920 312.8637895316478" dur="33.333333333333336s" repeatCount="indefinite" begin="-31.960292129424605s"></animateTransform>
  <path d="M84.717,33.597c0.791-2.503,1.186-5.138,1.186-7.773C85.903,11.594,74.308,0,60.079,0 c-9.881,0-18.445,5.534-22.793,13.702c-1.581-0.527-3.426-0.791-5.138-0.791c-9.486,0-17.128,7.642-17.128,17.128 c0,1.186,0.132,2.372,0.395,3.426C6.719,34.783,0,42.424,0,51.515C0,61.66,8.169,69.829,18.314,69.829h63.373 C91.831,69.829,100,61.66,100,51.515C99.868,42.556,93.281,35.046,84.717,33.597z" fill="#94a9ce" transform="scale(1.0697452919483055)"></path>
</g><g transform="translate(96.4962 283.313)">
  <animateTransform attributeName="transform" type="translate" keyTimes="0;1" values="-100 283.3126926246471;1920 283.3126926246471" dur="33.333333333333336s" repeatCount="indefinite" begin="-27.84286099844496s"></animateTransform>
  <path d="M84.717,33.597c0.791-2.503,1.186-5.138,1.186-7.773C85.903,11.594,74.308,0,60.079,0 c-9.881,0-18.445,5.534-22.793,13.702c-1.581-0.527-3.426-0.791-5.138-0.791c-9.486,0-17.128,7.642-17.128,17.128 c0,1.186,0.132,2.372,0.395,3.426C6.719,34.783,0,42.424,0,51.515C0,61.66,8.169,69.829,18.314,69.829h63.373 C91.831,69.829,100,61.66,100,51.515C99.868,42.556,93.281,35.046,84.717,33.597z" fill="#667395" transform="scale(0.5749932968524654)"></path>
</g><g transform="translate(1836.68 929.391)">
  <animateTransform attributeName="transform" type="translate" keyTimes="0;1" values="-100 929.3906051500143;1920 929.3906051500143" dur="50s" repeatCount="indefinite" begin="-39.20462063773697s"></animateTransform>
  <path d="M84.717,33.597c0.791-2.503,1.186-5.138,1.186-7.773C85.903,11.594,74.308,0,60.079,0 c-9.881,0-18.445,5.534-22.793,13.702c-1.581-0.527-3.426-0.791-5.138-0.791c-9.486,0-17.128,7.642-17.128,17.128 c0,1.186,0.132,2.372,0.395,3.426C6.719,34.783,0,42.424,0,51.515C0,61.66,8.169,69.829,18.314,69.829h63.373 C91.831,69.829,100,61.66,100,51.515C99.868,42.556,93.281,35.046,84.717,33.597z" fill="#b5ccf1" transform="scale(0.9810689683197501)"></path>
</g><g transform="translate(1385.75 640.344)">
  <animateTransform attributeName="transform" type="translate" keyTimes="0;1" values="-100 640.344418449846;1920 640.344418449846" dur="50s" repeatCount="indefinite" begin="-28.04291068178779s"></animateTransform>
  <path d="M84.717,33.597c0.791-2.503,1.186-5.138,1.186-7.773C85.903,11.594,74.308,0,60.079,0 c-9.881,0-18.445,5.534-22.793,13.702c-1.581-0.527-3.426-0.791-5.138-0.791c-9.486,0-17.128,7.642-17.128,17.128 c0,1.186,0.132,2.372,0.395,3.426C6.719,34.783,0,42.424,0,51.515C0,61.66,8.169,69.829,18.314,69.829h63.373 C91.831,69.829,100,61.66,100,51.515C99.868,42.556,93.281,35.046,84.717,33.597z" fill="#94a9ce" transform="scale(1.0088323263128682)"></path>
</g><g transform="translate(-9.99722 263.354)">
  <animateTransform attributeName="transform" type="translate" keyTimes="0;1" values="-100 263.35360513220877;1920 263.35360513220877" dur="50s" repeatCount="indefinite" begin="-93.49480761454664s"></animateTransform>
  <path d="M84.717,33.597c0.791-2.503,1.186-5.138,1.186-7.773C85.903,11.594,74.308,0,60.079,0 c-9.881,0-18.445,5.534-22.793,13.702c-1.581-0.527-3.426-0.791-5.138-0.791c-9.486,0-17.128,7.642-17.128,17.128 c0,1.186,0.132,2.372,0.395,3.426C6.719,34.783,0,42.424,0,51.515C0,61.66,8.169,69.829,18.314,69.829h63.373 C91.831,69.829,100,61.66,100,51.515C99.868,42.556,93.281,35.046,84.717,33.597z" fill="#94a9ce" transform="scale(0.6306839059357346)"></path>
</g><g transform="translate(554.075 306.211)">
  <animateTransform attributeName="transform" type="translate" keyTimes="0;1" values="-100 306.21084094652815;1920 306.21084094652815" dur="50s" repeatCount="indefinite" begin="-7.45698169081326s"></animateTransform>
  <path d="M84.717,33.597c0.791-2.503,1.186-5.138,1.186-7.773C85.903,11.594,74.308,0,60.079,0 c-9.881,0-18.445,5.534-22.793,13.702c-1.581-0.527-3.426-0.791-5.138-0.791c-9.486,0-17.128,7.642-17.128,17.128 c0,1.186,0.132,2.372,0.395,3.426C6.719,34.783,0,42.424,0,51.515C0,61.66,8.169,69.829,18.314,69.829h63.373 C91.831,69.829,100,61.66,100,51.515C99.868,42.556,93.281,35.046,84.717,33.597z" fill="#667395" transform="scale(0.5621214517804306)"></path>
</g><g transform="translate(583.928 280.782)">
  <animateTransform attributeName="transform" type="translate" keyTimes="0;1" values="-100 280.78176266440454;1920 280.78176266440454" dur="33.333333333333336s" repeatCount="indefinite" begin="-69.21962802901614s"></animateTransform>
  <path d="M84.717,33.597c0.791-2.503,1.186-5.138,1.186-7.773C85.903,11.594,74.308,0,60.079,0 c-9.881,0-18.445,5.534-22.793,13.702c-1.581-0.527-3.426-0.791-5.138-0.791c-9.486,0-17.128,7.642-17.128,17.128 c0,1.186,0.132,2.372,0.395,3.426C6.719,34.783,0,42.424,0,51.515C0,61.66,8.169,69.829,18.314,69.829h63.373 C91.831,69.829,100,61.66,100,51.515C99.868,42.556,93.281,35.046,84.717,33.597z" fill="#b5ccf1" transform="scale(0.8732128045502985)"></path>
</g><g transform="translate(1592.28 205.477)">
  <animateTransform attributeName="transform" type="translate" keyTimes="0;1" values="-100 205.47741714718285;1920 205.47741714718285" dur="33.333333333333336s" repeatCount="indefinite" begin="-85.85901919755338s"></animateTransform>
  <path d="M84.717,33.597c0.791-2.503,1.186-5.138,1.186-7.773C85.903,11.594,74.308,0,60.079,0 c-9.881,0-18.445,5.534-22.793,13.702c-1.581-0.527-3.426-0.791-5.138-0.791c-9.486,0-17.128,7.642-17.128,17.128 c0,1.186,0.132,2.372,0.395,3.426C6.719,34.783,0,42.424,0,51.515C0,61.66,8.169,69.829,18.314,69.829h63.373 C91.831,69.829,100,61.66,100,51.515C99.868,42.556,93.281,35.046,84.717,33.597z" fill="#667395" transform="scale(0.6818073616944615)"></path>
</g><g transform="translate(1774.35 477.214)">
  <animateTransform attributeName="transform" type="translate" keyTimes="0;1" values="-100 477.21382990266915;1920 477.21382990266915" dur="50s" repeatCount="indefinite" begin="-37.66190654539756s"></animateTransform>
  <path d="M84.717,33.597c0.791-2.503,1.186-5.138,1.186-7.773C85.903,11.594,74.308,0,60.079,0 c-9.881,0-18.445,5.534-22.793,13.702c-1.581-0.527-3.426-0.791-5.138-0.791c-9.486,0-17.128,7.642-17.128,17.128 c0,1.186,0.132,2.372,0.395,3.426C6.719,34.783,0,42.424,0,51.515C0,61.66,8.169,69.829,18.314,69.829h63.373 C91.831,69.829,100,61.66,100,51.515C99.868,42.556,93.281,35.046,84.717,33.597z" fill="#667395" transform="scale(1.016329075915219)"></path>
</g><g transform="translate(1239.08 221.56)">
  <animateTransform attributeName="transform" type="translate" keyTimes="0;1" values="-100 221.56026057164033;1920 221.56026057164033" dur="33.333333333333336s" repeatCount="indefinite" begin="-46.697384368955994s"></animateTransform>
  <path d="M84.717,33.597c0.791-2.503,1.186-5.138,1.186-7.773C85.903,11.594,74.308,0,60.079,0 c-9.881,0-18.445,5.534-22.793,13.702c-1.581-0.527-3.426-0.791-5.138-0.791c-9.486,0-17.128,7.642-17.128,17.128 c0,1.186,0.132,2.372,0.395,3.426C6.719,34.783,0,42.424,0,51.515C0,61.66,8.169,69.829,18.314,69.829h63.373 C91.831,69.829,100,61.66,100,51.515C99.868,42.556,93.281,35.046,84.717,33.597z" fill="#667395" transform="scale(1.0458233532967105)"></path>
</g><g transform="translate(1303.42 340.625)">
  <animateTransform attributeName="transform" type="translate" keyTimes="0;1" values="-100 340.6248184657605;1920 340.6248184657605" dur="50s" repeatCount="indefinite" begin="-26.005136869019168s"></animateTransform>
  <path d="M84.717,33.597c0.791-2.503,1.186-5.138,1.186-7.773C85.903,11.594,74.308,0,60.079,0 c-9.881,0-18.445,5.534-22.793,13.702c-1.581-0.527-3.426-0.791-5.138-0.791c-9.486,0-17.128,7.642-17.128,17.128 c0,1.186,0.132,2.372,0.395,3.426C6.719,34.783,0,42.424,0,51.515C0,61.66,8.169,69.829,18.314,69.829h63.373 C91.831,69.829,100,61.66,100,51.515C99.868,42.556,93.281,35.046,84.717,33.597z" fill="#b5ccf1" transform="scale(0.5637580839816011)"></path>
</g><g transform="translate(140.409 237.212)">
  <animateTransform attributeName="transform" type="translate" keyTimes="0;1" values="-100 237.2115370279137;1920 237.2115370279137" dur="100s" repeatCount="indefinite" begin="-3.1684287988632445s"></animateTransform>
  <path d="M84.717,33.597c0.791-2.503,1.186-5.138,1.186-7.773C85.903,11.594,74.308,0,60.079,0 c-9.881,0-18.445,5.534-22.793,13.702c-1.581-0.527-3.426-0.791-5.138-0.791c-9.486,0-17.128,7.642-17.128,17.128 c0,1.186,0.132,2.372,0.395,3.426C6.719,34.783,0,42.424,0,51.515C0,61.66,8.169,69.829,18.314,69.829h63.373 C91.831,69.829,100,61.66,100,51.515C99.868,42.556,93.281,35.046,84.717,33.597z" fill="#667395" transform="scale(0.9705860711000649)"></path>
</g><g transform="translate(791.85 525.673)">
  <animateTransform attributeName="transform" type="translate" keyTimes="0;1" values="-100 525.6727667689094;1920 525.6727667689094" dur="33.333333333333336s" repeatCount="indefinite" begin="-39.31734404899543s"></animateTransform>
  <path d="M84.717,33.597c0.791-2.503,1.186-5.138,1.186-7.773C85.903,11.594,74.308,0,60.079,0 c-9.881,0-18.445,5.534-22.793,13.702c-1.581-0.527-3.426-0.791-5.138-0.791c-9.486,0-17.128,7.642-17.128,17.128 c0,1.186,0.132,2.372,0.395,3.426C6.719,34.783,0,42.424,0,51.515C0,61.66,8.169,69.829,18.314,69.829h63.373 C91.831,69.829,100,61.66,100,51.515C99.868,42.556,93.281,35.046,84.717,33.597z" fill="#b5ccf1" transform="scale(1.0170467455588041)"></path>
</g><g transform="translate(1458.57 746.522)">
  <animateTransform attributeName="transform" type="translate" keyTimes="0;1" values="-100 746.5223537652284;1920 746.5223537652284" dur="33.333333333333336s" repeatCount="indefinite" begin="-50.31930664022903s"></animateTransform>
  <path d="M84.717,33.597c0.791-2.503,1.186-5.138,1.186-7.773C85.903,11.594,74.308,0,60.079,0 c-9.881,0-18.445,5.534-22.793,13.702c-1.581-0.527-3.426-0.791-5.138-0.791c-9.486,0-17.128,7.642-17.128,17.128 c0,1.186,0.132,2.372,0.395,3.426C6.719,34.783,0,42.424,0,51.515C0,61.66,8.169,69.829,18.314,69.829h63.373 C91.831,69.829,100,61.66,100,51.515C99.868,42.556,93.281,35.046,84.717,33.597z" fill="#94a9ce" transform="scale(0.8153521389946988)"></path>
</g><g transform="translate(277.121 731.789)">
  <animateTransform attributeName="transform" type="translate" keyTimes="0;1" values="-100 731.7892715770436;1920 731.7892715770436" dur="33.333333333333336s" repeatCount="indefinite" begin="-64.15680341228547s"></animateTransform>
  <path d="M84.717,33.597c0.791-2.503,1.186-5.138,1.186-7.773C85.903,11.594,74.308,0,60.079,0 c-9.881,0-18.445,5.534-22.793,13.702c-1.581-0.527-3.426-0.791-5.138-0.791c-9.486,0-17.128,7.642-17.128,17.128 c0,1.186,0.132,2.372,0.395,3.426C6.719,34.783,0,42.424,0,51.515C0,61.66,8.169,69.829,18.314,69.829h63.373 C91.831,69.829,100,61.66,100,51.515C99.868,42.556,93.281,35.046,84.717,33.597z" fill="#667395" transform="scale(0.6302855040084777)"></path>
</g><g transform="translate(1282.79 691.098)">
  <animateTransform attributeName="transform" type="translate" keyTimes="0;1" values="-100 691.097994995275;1920 691.097994995275" dur="33.333333333333336s" repeatCount="indefinite" begin="-47.41865408936777s"></animateTransform>
  <path d="M84.717,33.597c0.791-2.503,1.186-5.138,1.186-7.773C85.903,11.594,74.308,0,60.079,0 c-9.881,0-18.445,5.534-22.793,13.702c-1.581-0.527-3.426-0.791-5.138-0.791c-9.486,0-17.128,7.642-17.128,17.128 c0,1.186,0.132,2.372,0.395,3.426C6.719,34.783,0,42.424,0,51.515C0,61.66,8.169,69.829,18.314,69.829h63.373 C91.831,69.829,100,61.66,100,51.515C99.868,42.556,93.281,35.046,84.717,33.597z" fill="#b5ccf1" transform="scale(0.5209460018221287)"></path>
</g><g transform="translate(1885.55 415.661)">
  <animateTransform attributeName="transform" type="translate" keyTimes="0;1" values="-100 415.6605824968549;1920 415.6605824968549" dur="100s" repeatCount="indefinite" begin="-89.56170466734349s"></animateTransform>
  <path d="M84.717,33.597c0.791-2.503,1.186-5.138,1.186-7.773C85.903,11.594,74.308,0,60.079,0 c-9.881,0-18.445,5.534-22.793,13.702c-1.581-0.527-3.426-0.791-5.138-0.791c-9.486,0-17.128,7.642-17.128,17.128 c0,1.186,0.132,2.372,0.395,3.426C6.719,34.783,0,42.424,0,51.515C0,61.66,8.169,69.829,18.314,69.829h63.373 C91.831,69.829,100,61.66,100,51.515C99.868,42.556,93.281,35.046,84.717,33.597z" fill="#94a9ce" transform="scale(0.9948987557564405)"></path>
</g><g transform="translate(-42.63 387.451)">
  <animateTransform attributeName="transform" type="translate" keyTimes="0;1" values="-100 387.4510552067051;1920 387.4510552067051" dur="50s" repeatCount="indefinite" begin="-42.6870649992834s"></animateTransform>
  <path d="M84.717,33.597c0.791-2.503,1.186-5.138,1.186-7.773C85.903,11.594,74.308,0,60.079,0 c-9.881,0-18.445,5.534-22.793,13.702c-1.581-0.527-3.426-0.791-5.138-0.791c-9.486,0-17.128,7.642-17.128,17.128 c0,1.186,0.132,2.372,0.395,3.426C6.719,34.783,0,42.424,0,51.515C0,61.66,8.169,69.829,18.314,69.829h63.373 C91.831,69.829,100,61.66,100,51.515C99.868,42.556,93.281,35.046,84.717,33.597z" fill="#b5ccf1" transform="scale(0.4877579300282124)"></path>
</g><g transform="translate(260.126 446.318)">
  <animateTransform attributeName="transform" type="translate" keyTimes="0;1" values="-100 446.31783220881806;1920 446.31783220881806" dur="100s" repeatCount="indefinite" begin="-9.09502750654578s"></animateTransform>
  <path d="M84.717,33.597c0.791-2.503,1.186-5.138,1.186-7.773C85.903,11.594,74.308,0,60.079,0 c-9.881,0-18.445,5.534-22.793,13.702c-1.581-0.527-3.426-0.791-5.138-0.791c-9.486,0-17.128,7.642-17.128,17.128 c0,1.186,0.132,2.372,0.395,3.426C6.719,34.783,0,42.424,0,51.515C0,61.66,8.169,69.829,18.314,69.829h63.373 C91.831,69.829,100,61.66,100,51.515C99.868,42.556,93.281,35.046,84.717,33.597z" fill="#b5ccf1" transform="scale(0.7239416300255737)"></path>
</g><g transform="translate(1653.59 728.655)">
  <animateTransform attributeName="transform" type="translate" keyTimes="0;1" values="-100 728.6546849527513;1920 728.6546849527513" dur="33.333333333333336s" repeatCount="indefinite" begin="-20.20406986254273s"></animateTransform>
  <path d="M84.717,33.597c0.791-2.503,1.186-5.138,1.186-7.773C85.903,11.594,74.308,0,60.079,0 c-9.881,0-18.445,5.534-22.793,13.702c-1.581-0.527-3.426-0.791-5.138-0.791c-9.486,0-17.128,7.642-17.128,17.128 c0,1.186,0.132,2.372,0.395,3.426C6.719,34.783,0,42.424,0,51.515C0,61.66,8.169,69.829,18.314,69.829h63.373 C91.831,69.829,100,61.66,100,51.515C99.868,42.556,93.281,35.046,84.717,33.597z" fill="#94a9ce" transform="scale(1.0783536271884102)"></path>
</g><g transform="translate(1602.56 641.661)">
  <animateTransform attributeName="transform" type="translate" keyTimes="0;1" values="-100 641.6606193909676;1920 641.6606193909676" dur="50s" repeatCount="indefinite" begin="-83.40964535124449s"></animateTransform>
  <path d="M84.717,33.597c0.791-2.503,1.186-5.138,1.186-7.773C85.903,11.594,74.308,0,60.079,0 c-9.881,0-18.445,5.534-22.793,13.702c-1.581-0.527-3.426-0.791-5.138-0.791c-9.486,0-17.128,7.642-17.128,17.128 c0,1.186,0.132,2.372,0.395,3.426C6.719,34.783,0,42.424,0,51.515C0,61.66,8.169,69.829,18.314,69.829h63.373 C91.831,69.829,100,61.66,100,51.515C99.868,42.556,93.281,35.046,84.717,33.597z" fill="#667395" transform="scale(0.5372038957726258)"></path>
</g><g transform="translate(1491.25 765.335)">
  <animateTransform attributeName="transform" type="translate" keyTimes="0;1" values="-100 765.3346871880287;1920 765.3346871880287" dur="100s" repeatCount="indefinite" begin="-70.04171377538401s"></animateTransform>
  <path d="M84.717,33.597c0.791-2.503,1.186-5.138,1.186-7.773C85.903,11.594,74.308,0,60.079,0 c-9.881,0-18.445,5.534-22.793,13.702c-1.581-0.527-3.426-0.791-5.138-0.791c-9.486,0-17.128,7.642-17.128,17.128 c0,1.186,0.132,2.372,0.395,3.426C6.719,34.783,0,42.424,0,51.515C0,61.66,8.169,69.829,18.314,69.829h63.373 C91.831,69.829,100,61.66,100,51.515C99.868,42.556,93.281,35.046,84.717,33.597z" fill="#94a9ce" transform="scale(0.8131884229751156)"></path>
</g></g>
<style type="text/css">.lded > .content, .lded > .content > .inner { height: 100%; }
.lded > .content > .inner > .viewer { width: 100%; height: 100%; max-width: 100%; }
.lded > .content > .inner > .panel {
  position: absolute;
  bottom: 50px;
  left: 0;
  right: 0;
  opacity: 0.3;
}
.lded > .content > .inner > .panel:hover { opacity: 1; }
.lded > .content > .inner > .ctrl {
  position: absolute;
  bottom: 13px;
  left: 0;
  right: 0;
  margin: auto;
}
.lded > .content > .inner > .ctrl:hover {
  z-index: 10;
}
#editor > .inner > .title {
  position: absolute;
  bottom: 195px;
  left: 0;
  right: 0;
  z-index: 11;
}
#editor > .inner > .title > a:first-child {
  margin-left: 0!important;
#editor .lded .viewer { border-radius: 0 }</style></svg>